STARTFONT 2.1
FONT -Adobe-Times-Medium-R-Normal--34-240-100-100-P-170-ISO8859-2
SIZE 24 100 100
FONTBOUNDINGBOX 37 37 -4 -7
COMMENT $XConsortium: timR24.bdf,v 1.7 95/01/26 17:59:41 gildea Exp $
COMMENT 
COMMENT +
COMMENT  Copyright 1984-1989, 1994 Adobe Systems Incorporated.
COMMENT  Copyright 1988, 1994 Digital Equipment Corporation.
COMMENT
COMMENT  Adobe is a trademark of Adobe Systems Incorporated which may be
COMMENT  registered in certain jurisdictions.
COMMENT  Permission to use these trademarks is hereby granted only in
COMMENT  association with the images described in this file.
COMMENT
COMMENT  Permission to use, copy, modify, distribute and sell this software
COMMENT  and its documentation for any purpose and without fee is hereby
COMMENT  granted, provided that the above copyright notices appear in all
COMMENT  copies and that both those copyright notices and this permission
COMMENT  notice appear in supporting documentation, and that the names of
COMMENT  Adobe Systems and Digital Equipment Corporation not be used in
COMMENT  advertising or publicity pertaining to distribution of the software
COMMENT  without specific, written prior permission.  Adobe Systems and
COMMENT  Digital Equipment Corporation make no representations about the
COMMENT  suitability of this software for any purpose.  It is provided "as
COMMENT  is" without express or implied warranty.
COMMENT -
COMMENT  
COMMENT  Translation to ISO8859-2 by Cub Soft;  Petr.Kolar@vslib.cz
COMMENT  
STARTPROPERTIES 28
FOUNDRY "Adobe"
FAMILY_NAME "Times"
WEIGHT_NAME "Medium"
SLANT "R"
SETWIDTH_NAME "Normal"
ADD_STYLE_NAME ""
PIXEL_SIZE 34
POINT_SIZE 240
RESOLUTION_X 100
RESOLUTION_Y 100
SPACING "P"
AVERAGE_WIDTH 170
CHARSET_REGISTRY "ISO8859"
CHARSET_ENCODING "2"
CAP_HEIGHT 23
X_HEIGHT 15
FONT_ASCENT 27
FONT_DESCENT 7
FACE_NAME "Times Roman"

STARTCHAR space
ENCODING 32
SWIDTH 250 0
DWIDTH 8 0
BBX 1 1 0 0
BITMAP
00
ENDCHAR
STARTCHAR exclam
ENCODING 33
SWIDTH 333 0
DWIDTH 11 0
BBX 4 23 3 0
BITMAP
60
f0
f0
f0
f0
f0
60
60
60
60
60
60
60
60
60
60
60
00
00
60
f0
f0
60
ENDCHAR
STARTCHAR quotedbl
ENCODING 34
SWIDTH 408 0
DWIDTH 14 0
BBX 9 7 2 16
BITMAP
e380
e380
e380
e380
4100
4100
4100
ENDCHAR
STARTCHAR numbersign
ENCODING 35
SWIDTH 500 0
DWIDTH 17 0
BBX 16 23 0 0
BITMAP
0618
0618
0618
0618
0618
0618
0618
0618
7fff
7fff
0c30
0c30
0c30
0c30
fffe
fffe
1860
1860
1860
1860
1860
1860
1860
ENDCHAR
STARTCHAR dollar
ENCODING 36
SWIDTH 500 0
DWIDTH 16 0
BBX 13 28 2 -3
BITMAP
0200
0200
0fc0
3a70
3238
6218
6208
6208
7200
7a00
3e00
3f00
1f80
07c0
03e0
02f0
0270
0238
0238
8218
8218
c238
e230
7260
1fc0
0200
0200
0200
ENDCHAR
STARTCHAR percent
ENCODING 37
SWIDTH 833 0
DWIDTH 27 0
BBX 23 23 2 0
BITMAP
0f0040
1d83c0
38fc80
704180
704300
e04200
e04600
e0c400
c08c00
c18800
c11878
6610ec
3c31c6
006382
004382
00c702
008702
018706
010604
03060c
020608
060330
0401e0
ENDCHAR
STARTCHAR ampersand
ENCODING 38
SWIDTH 778 0
DWIDTH 26 0
BBX 23 23 2 0
BITMAP
00f800
018c00
030e00
030600
070600
070600
070c00
078c00
039800
03f1fc
03c070
07c060
1de040
38f0c0
707080
607980
e03f00
e01e00
e00f00
f01f82
7833fc
7fe1f8
1f80f0
ENDCHAR
STARTCHAR apostrophe
ENCODING 39
SWIDTH 333 0
DWIDTH 11 0
BBX 4 7 3 16
BITMAP
60
f0
f0
70
10
20
40
ENDCHAR
STARTCHAR parenleft
ENCODING 40
SWIDTH 333 0
DWIDTH 11 0
BBX 8 28 2 -5
BITMAP
03
06
0c
18
38
30
70
70
60
e0
e0
e0
e0
e0
e0
e0
e0
e0
e0
60
70
70
30
38
18
0c
06
03
ENDCHAR
STARTCHAR parenright
ENCODING 41
SWIDTH 333 0
DWIDTH 11 0
BBX 8 28 1 -5
BITMAP
c0
60
30
18
1c
0c
0e
0e
06
07
07
07
07
07
07
07
07
07
07
06
0e
0e
0c
1c
18
30
60
c0
ENDCHAR
STARTCHAR asterisk
ENCODING 42
SWIDTH 500 0
DWIDTH 17 0
BBX 12 13 2 10
BITMAP
0600
0f00
0600
c630
f6f0
76e0
0f00
76e0
f6f0
c630
0600
0f00
0600
ENDCHAR
STARTCHAR plus
ENCODING 43
SWIDTH 564 0
DWIDTH 19 0
BBX 16 16 1 1
BITMAP
0180
0180
0180
0180
0180
0180
0180
ffff
ffff
0180
0180
0180
0180
0180
0180
0180
ENDCHAR
STARTCHAR comma
ENCODING 44
SWIDTH 250 0
DWIDTH 8 0
BBX 4 7 2 -3
BITMAP
60
f0
f0
70
10
20
40
ENDCHAR
STARTCHAR minus
ENCODING 45
SWIDTH 564 0
DWIDTH 18 0
BBX 16 2 1 8
BITMAP
ffff
ffff
ENDCHAR
STARTCHAR period
ENCODING 46
SWIDTH 250 0
DWIDTH 8 0
BBX 4 4 2 0
BITMAP
60
f0
f0
60
ENDCHAR
STARTCHAR slash
ENCODING 47
SWIDTH 278 0
DWIDTH 9 0
BBX 10 26 0 -3
BITMAP
00c0
00c0
0180
0180
0380
0300
0300
0300
0600
0600
0600
0e00
0c00
0c00
1c00
1800
1800
1800
3000
3000
3000
7000
6000
6000
c000
c000
ENDCHAR
STARTCHAR zero
ENCODING 48
SWIDTH 500 0
DWIDTH 16 0
BBX 14 23 1 0
BITMAP
0780
1ce0
3870
3030
7038
7038
6018
e01c
e01c
e01c
e01c
e01c
e01c
e01c
e01c
e01c
e018
7038
7038
3030
3870
1ce0
0780
ENDCHAR
STARTCHAR one
ENCODING 49
SWIDTH 500 0
DWIDTH 16 0
BBX 9 23 4 0
BITMAP
0c00
1c00
7c00
dc00
1c00
1c00
1c00
1c00
1c00
1c00
1c00
1c00
1c00
1c00
1c00
1c00
1c00
1c00
1c00
1c00
1c00
3e00
ff80
ENDCHAR
STARTCHAR two
ENCODING 50
SWIDTH 500 0
DWIDTH 16 0
BBX 15 23 0 0
BITMAP
07e0
0ff0
1cf8
303c
203c
601c
401c
001c
001c
0018
0038
0030
0060
0060
00c0
0180
0300
0600
0c02
1806
3ffc
7ff8
fff8
ENDCHAR
STARTCHAR three
ENCODING 51
SWIDTH 500 0
DWIDTH 16 0
BBX 12 23 2 0
BITMAP
0f80
3fc0
61e0
c0e0
80e0
00e0
00c0
00c0
0180
0300
07c0
1fe0
01f0
0070
0070
0030
0030
0030
0070
0060
e0c0
f380
7f00
ENDCHAR
STARTCHAR four
ENCODING 52
SWIDTH 500 0
DWIDTH 16 0
BBX 14 23 1 0
BITMAP
0060
00e0
00e0
01e0
0160
0360
0660
0460
0c60
1860
1060
3060
6060
4060
fffc
fffc
fffc
0060
0060
0060
0060
0060
0060
ENDCHAR
STARTCHAR five
ENCODING 53
SWIDTH 500 0
DWIDTH 16 0
BBX 13 23 1 0
BITMAP
0ff8
1ff0
1fe0
1000
3000
2000
7e00
7f80
7fc0
07e0
01e0
00f0
0070
0070
0030
0030
0030
0030
0060
0060
e0c0
f380
7e00
ENDCHAR
STARTCHAR six
ENCODING 54
SWIDTH 500 0
DWIDTH 16 0
BBX 14 23 1 0
BITMAP
0078
01c0
0380
0f00
1e00
1c00
3800
7800
7000
73c0
f7f0
f878
e038
e03c
e01c
e01c
e01c
e01c
701c
7018
3838
1c60
07c0
ENDCHAR
STARTCHAR seven
ENCODING 55
SWIDTH 500 0
DWIDTH 16 0
BBX 14 23 1 0
BITMAP
3ffc
7ffc
6018
c018
8038
0030
0030
0030
0060
0060
0060
00e0
00c0
00c0
01c0
0180
0180
0180
0300
0300
0300
0700
0600
ENDCHAR
STARTCHAR eight
ENCODING 56
SWIDTH 500 0
DWIDTH 16 0
BBX 13 23 2 0
BITMAP
1f80
38e0
7070
e030
e030
e030
e070
f060
7cc0
3f00
1f80
0fc0
1be0
71f0
60f0
e078
c078
c038
c038
e038
6070
70e0
1fc0
ENDCHAR
STARTCHAR nine
ENCODING 57
SWIDTH 500 0
DWIDTH 16 0
BBX 14 23 1 0
BITMAP
0780
18e0
3070
7038
6038
e01c
e01c
e01c
e01c
e01c
f01c
701c
783c
3efc
0fb8
0038
0070
0070
00e0
01c0
0380
0f00
7800
ENDCHAR
STARTCHAR colon
ENCODING 58
SWIDTH 278 0
DWIDTH 9 0
BBX 4 15 2 0
BITMAP
60
f0
f0
60
00
00
00
00
00
00
00
60
f0
f0
60
ENDCHAR
STARTCHAR semicolon
ENCODING 59
SWIDTH 278 0
DWIDTH 9 0
BBX 4 18 2 -3
BITMAP
60
f0
f0
60
00
00
00
00
00
00
00
60
f0
f0
70
10
20
40
ENDCHAR
STARTCHAR less
ENCODING 60
SWIDTH 564 0
DWIDTH 19 0
BBX 16 18 1 0
BITMAP
0001
0007
001f
007c
01f0
07c0
1f00
7c00
f000
f000
7c00
1f00
07c0
01f0
007c
001f
0007
0001
ENDCHAR
STARTCHAR equal
ENCODING 61
SWIDTH 564 0
DWIDTH 19 0
BBX 16 9 1 4
BITMAP
ffff
ffff
0000
0000
0000
0000
0000
ffff
ffff
ENDCHAR
STARTCHAR greater
ENCODING 62
SWIDTH 564 0
DWIDTH 19 0
BBX 16 18 2 0
BITMAP
8000
e000
f800
3e00
0f80
03e0
00f8
003e
000f
000f
003e
00f8
03e0
0f80
3e00
f800
e000
8000
ENDCHAR
STARTCHAR question
ENCODING 63
SWIDTH 444 0
DWIDTH 14 0
BBX 11 23 2 0
BITMAP
1f00
7380
c1c0
c1c0
e0e0
e0e0
60e0
01c0
01c0
0180
0380
0300
0600
0400
0c00
0800
0800
0000
0000
0c00
1e00
1e00
0c00
ENDCHAR
STARTCHAR at
ENCODING 64
SWIDTH 921 0
DWIDTH 31 0
BBX 27 28 2 -5
BITMAP
001ff000
00f83c00
01e00600
07800300
0e000180
1c0000c0
1c0000c0
38078c60
701f5c60
701c7c20
70383820
e0703820
e0703020
e0707020
e0e07060
e0e07040
e0e0e0c0
e0e0e080
70e1e180
70777300
703c3e00
38000000
18000000
1c000000
0e000000
07800600
01f03c00
007ff000
ENDCHAR
STARTCHAR A
ENCODING 65
SWIDTH 722 0
DWIDTH 24 0
BBX 22 23 1 0
BITMAP
003000
003000
007000
007800
007800
00fc00
00dc00
009c00
018e00
010e00
030f00
030700
020700
060780
060380
0fffc0
0c03c0
1801c0
1801e0
3001e0
3000f0
7000f0
fc03fc
ENDCHAR
STARTCHAR B
ENCODING 66
SWIDTH 667 0
DWIDTH 22 0
BBX 20 23 1 0
BITMAP
fffe00
3e0f80
1c03c0
1c01c0
1c01e0
1c00e0
1c00e0
1c01e0
1c01c0
1c03c0
1c0f80
1ffe00
1c0780
1c01e0
1c00e0
1c00f0
1c0070
1c0070
1c00f0
1c00e0
1c01e0
3e07c0
ffff00
ENDCHAR
STARTCHAR C
ENCODING 67
SWIDTH 667 0
DWIDTH 22 0
BBX 20 23 1 0
BITMAP
01ff10
0783f0
0e00f0
1c0070
380030
380030
700010
700010
f00000
f00000
f00000
f00000
f00000
f00000
f00000
700000
700000
380000
380010
1c0030
0e0060
0783c0
01ff00
ENDCHAR
STARTCHAR D
ENCODING 68
SWIDTH 722 0
DWIDTH 24 0
BBX 22 23 1 0
BITMAP
fffe00
3e0780
1c01c0
1c00e0
1c0070
1c0070
1c0038
1c0038
1c003c
1c003c
1c003c
1c003c
1c003c
1c003c
1c003c
1c0038
1c0038
1c0070
1c0070
1c00e0
1c01c0
3e0780
fffe00
ENDCHAR
STARTCHAR E
ENCODING 69
SWIDTH 611 0
DWIDTH 20 0
BBX 19 23 1 0
BITMAP
ffffc0
3e03c0
1c00c0
1c0040
1c0040
1c0000
1c0000
1c0000
1c0100
1c0100
1c0300
1fff00
1c0300
1c0100
1c0100
1c0000
1c0000
1c0020
1c0020
1c0060
1c00c0
3e03c0
ffffc0
ENDCHAR
STARTCHAR F
ENCODING 70
SWIDTH 556 0
DWIDTH 18 0
BBX 17 23 1 0
BITMAP
ffff80
3e0780
1c0180
1c0080
1c0080
1c0000
1c0000
1c0000
1c0200
1c0200
1c0600
1ffe00
1c0600
1c0200
1c0200
1c0000
1c0000
1c0000
1c0000
1c0000
1c0000
3e0000
ff8000
ENDCHAR
STARTCHAR G
ENCODING 71
SWIDTH 722 0
DWIDTH 24 0
BBX 22 23 1 0
BITMAP
01ff30
0787f0
0e00f0
1c0070
380030
380030
700010
700000
f00000
f00000
f00000
f003fc
f000f8
f00070
f00070
700070
700070
380070
380070
1c0070
0e0070
0781e0
01ff80
ENDCHAR
STARTCHAR H
ENCODING 72
SWIDTH 722 0
DWIDTH 24 0
BBX 22 23 1 0
BITMAP
ff87fc
3e01f0
1c00e0
1c00e0
1c00e0
1c00e0
1c00e0
1c00e0
1c00e0
1c00e0
1c00e0
1fffe0
1c00e0
1c00e0
1c00e0
1c00e0
1c00e0
1c00e0
1c00e0
1c00e0
1c00e0
3e01f0
ff87fc
ENDCHAR
STARTCHAR I
ENCODING 73
SWIDTH 333 0
DWIDTH 11 0
BBX 9 23 1 0
BITMAP
ff80
3e00
1c00
1c00
1c00
1c00
1c00
1c00
1c00
1c00
1c00
1c00
1c00
1c00
1c00
1c00
1c00
1c00
1c00
1c00
1c00
3e00
ff80
ENDCHAR
STARTCHAR J
ENCODING 74
SWIDTH 389 0
DWIDTH 13 0
BBX 12 23 1 0
BITMAP
1ff0
07c0
0380
0380
0380
0380
0380
0380
0380
0380
0380
0380
0380
0380
0380
0380
0380
0380
0380
c380
e300
e700
7c00
ENDCHAR
STARTCHAR K
ENCODING 75
SWIDTH 722 0
DWIDTH 24 0
BBX 23 23 1 0
BITMAP
ffc7f8
3e01e0
1c0180
1c0300
1c0600
1c0c00
1c1800
1c3000
1c6000
1cc000
1fc000
1fe000
1ff000
1e7800
1c3c00
1c1e00
1c0f00
1c0780
1c03c0
1c01e0
1c00f0
3e00f8
ffc7fe
ENDCHAR
STARTCHAR L
ENCODING 76
SWIDTH 611 0
DWIDTH 20 0
BBX 19 23 1 0
BITMAP
ff8000
3e0000
1c0000
1c0000
1c0000
1c0000
1c0000
1c0000
1c0000
1c0000
1c0000
1c0000
1c0000
1c0000
1c0000
1c0000
1c0000
1c0020
1c0020
1c0060
1c00c0
3e03c0
ffffc0
ENDCHAR
STARTCHAR M
ENCODING 77
SWIDTH 889 0
DWIDTH 30 0
BBX 28 23 1 0
BITMAP
fc0007f0
3e0007c0
1e000f80
1f000f80
1f000b80
17001b80
17801b80
13803380
13c03380
13c02380
11e06380
11e06380
10e0c380
10f0c380
10708380
10798380
10790380
103d0380
103f0380
101e0380
101e0380
380c07c0
fe0c1ff0
ENDCHAR
STARTCHAR N
ENCODING 78
SWIDTH 722 0
DWIDTH 24 0
BBX 22 23 1 0
BITMAP
f801fc
3c0070
1e0020
1f0020
1f0020
178020
13c020
13c020
11e020
10f020
10f820
107820
103c20
101e20
101f20
100f20
1007a0
1003e0
1001e0
1001e0
1000e0
380060
fe0020
ENDCHAR
STARTCHAR O
ENCODING 79
SWIDTH 722 0
DWIDTH 24 0
BBX 22 23 1 0
BITMAP
01fe00
078780
0e01c0
1c00e0
380070
380070
700038
700038
f0003c
f0003c
f0003c
f0003c
f0003c
f0003c
f0003c
700038
700038
380070
380070
1c00e0
0e01c0
078780
01fe00
ENDCHAR
STARTCHAR P
ENCODING 80
SWIDTH 556 0
DWIDTH 18 0
BBX 17 23 1 0
BITMAP
fff800
3c3e00
1c0f00
1c0700
1c0780
1c0380
1c0380
1c0380
1c0780
1c0700
1c0f00
1c3e00
1ff000
1c0000
1c0000
1c0000
1c0000
1c0000
1c0000
1c0000
1c0000
3e0000
ff8000
ENDCHAR
STARTCHAR Q
ENCODING 81
SWIDTH 722 0
DWIDTH 24 0
BBX 22 29 1 -6
BITMAP
01fe00
078780
0e01c0
1c00e0
380070
380070
700038
700038
f0003c
f0003c
f0003c
f0003c
f0003c
f0003c
f0003c
700038
700038
380070
380070
1c00e0
0e01c0
078780
01fe00
007c00
003e00
001f00
000f80
0003e0
00007c
ENDCHAR
STARTCHAR R
ENCODING 82
SWIDTH 667 0
DWIDTH 22 0
BBX 21 23 1 0
BITMAP
fff800
3c3e00
1c0f00
1c0780
1c0780
1c0380
1c0380
1c0380
1c0780
1c0700
1c1e00
1ff800
1cf000
1c7800
1c3c00
1c3c00
1c1e00
1c0f00
1c0f80
1c0780
1c03c0
3e01e0
ff81f8
ENDCHAR
STARTCHAR S
ENCODING 83
SWIDTH 556 0
DWIDTH 18 0
BBX 15 23 1 0
BITMAP
07e4
1c3c
381c
700c
7004
7006
7800
7c00
3e00
1f80
0fe0
07f0
01f8
007c
003e
001e
800e
800e
c00e
e00c
701c
7c78
67f0
ENDCHAR
STARTCHAR T
ENCODING 84
SWIDTH 611 0
DWIDTH 20 0
BBX 19 23 1 0
BITMAP
ffffe0
f0e1e0
c0e060
c0e060
80e020
80e020
00e000
00e000
00e000
00e000
00e000
00e000
00e000
00e000
00e000
00e000
00e000
00e000
00e000
00e000
00e000
01f000
07fc00
ENDCHAR
STARTCHAR U
ENCODING 85
SWIDTH 722 0
DWIDTH 24 0
BBX 22 23 1 0
BITMAP
ff81fc
3e0070
1c0020
1c0020
1c0020
1c0020
1c0020
1c0020
1c0020
1c0020
1c0020
1c0020
1c0020
1c0020
1c0020
1c0020
1c0020
1c0020
1e0060
0e0040
0f00c0
07c380
01fe00
ENDCHAR
STARTCHAR V
ENCODING 86
SWIDTH 722 0
DWIDTH 23 0
BBX 22 23 1 0
BITMAP
ff01fc
7c0070
3c0060
1e0040
1e00c0
0e00c0
0f0080
0f0180
070180
078100
038300
03c300
03c200
01c600
01e600
00e400
00ec00
007c00
007800
007800
003800
003000
001000
ENDCHAR
STARTCHAR W
ENCODING 87
SWIDTH 944 0
DWIDTH 32 0
BBX 31 23 1 0
BITMAP
ff3fe0fe
7c0f8078
3c070030
1c078030
1e078060
1e038060
0e03c060
0f03c0c0
0703e0c0
0787e0c0
0786e180
0384f180
03ccf180
03cc7300
01d87b00
01d83b00
01f83e00
00f03e00
00f01c00
00e01c00
00601c00
00600800
00400800
ENDCHAR
STARTCHAR X
ENCODING 88
SWIDTH 722 0
DWIDTH 24 0
BBX 22 23 1 0
BITMAP
ffc3fc
3f00f0
1f00e0
0f00c0
078180
078300
03c600
01e600
01ec00
00f800
007800
007800
007c00
00de00
019e00
018f00
030f80
060780
0e03c0
0c03e0
1801e0
3801f0
fe07fc
ENDCHAR
STARTCHAR Y
ENCODING 89
SWIDTH 722 0
DWIDTH 24 0
BBX 22 23 1 0
BITMAP
ffc0fc
3f0038
1e0030
0f0060
0f80c0
078080
03c180
03c300
01e300
00f600
00fc00
007c00
003800
003800
003800
003800
003800
003800
003800
003800
003800
007c00
01ff00
ENDCHAR
STARTCHAR Z
ENCODING 90
SWIDTH 611 0
DWIDTH 20 0
BBX 19 23 1 0
BITMAP
3fffe0
3803c0
600780
600780
400f00
401e00
001e00
003c00
007800
007800
00f000
01e000
01e000
03c000
03c000
078000
0f0000
0f0020
1e0020
3c0060
3c0060
7801c0
ffffc0
ENDCHAR
STARTCHAR bracketleft
ENCODING 91
SWIDTH 333 0
DWIDTH 11 0
BBX 7 28 3 -5
BITMAP
fe
f0
e0
e0
e0
e0
e0
e0
e0
e0
e0
e0
e0
e0
e0
e0
e0
e0
e0
e0
e0
e0
e0
e0
e0
e0
f0
fe
ENDCHAR
STARTCHAR backslash
ENCODING 92
SWIDTH 278 0
DWIDTH 9 0
BBX 13 23 -2 0
BITMAP
c000
e000
6000
7000
3000
3800
1800
1c00
0c00
0e00
0600
0700
0300
0380
0180
01c0
00c0
00e0
0060
0070
0030
0038
0018
ENDCHAR
STARTCHAR bracketright
ENCODING 93
SWIDTH 333 0
DWIDTH 11 0
BBX 7 28 1 -5
BITMAP
fe
1e
0e
0e
0e
0e
0e
0e
0e
0e
0e
0e
0e
0e
0e
0e
0e
0e
0e
0e
0e
0e
0e
0e
0e
0e
1e
fe
ENDCHAR
STARTCHAR asciicircum
ENCODING 94
SWIDTH 469 0
DWIDTH 16 0
BBX 13 13 1 10
BITMAP
0700
0700
0f80
0d80
18c0
18c0
3060
3060
7070
6030
e038
c018
c018
ENDCHAR
STARTCHAR underscore
ENCODING 95
SWIDTH 500 0
DWIDTH 17 0
BBX 17 2 0 -5
BITMAP
ffff80
ffff80
ENDCHAR
STARTCHAR grave
ENCODING 96
SWIDTH 333 0
DWIDTH 11 0
BBX 7 6 1 17
BITMAP
c0
e0
70
18
0c
06
ENDCHAR
STARTCHAR a
ENCODING 97
SWIDTH 444 0
DWIDTH 15 0
BBX 13 15 1 0
BITMAP
1f80
31c0
70e0
70e0
60e0
03e0
0ee0
18e0
30e0
60e0
e0e0
e1e0
f2e8
7ef8
3c70
ENDCHAR
STARTCHAR b
ENCODING 98
SWIDTH 500 0
DWIDTH 16 0
BBX 15 23 0 0
BITMAP
1800
f800
3800
3800
3800
3800
3800
3800
39f0
3bf8
3c7c
381c
381e
380e
380e
380e
380e
380e
380c
381c
3818
3c70
0fe0
ENDCHAR
STARTCHAR c
ENCODING 99
SWIDTH 444 0
DWIDTH 15 0
BBX 12 15 1 0
BITMAP
0f80
38c0
70e0
60e0
e060
c000
c000
c000
c000
e000
e010
7030
7c60
3fc0
1f00
ENDCHAR
STARTCHAR d
ENCODING 100
SWIDTH 500 0
DWIDTH 16 0
BBX 15 23 1 0
BITMAP
0018
00f8
0038
0038
0038
0038
0038
0038
0fb8
18f8
3078
7038
6038
e038
e038
e038
e038
e038
f038
7078
78f8
3fbe
0f30
ENDCHAR
STARTCHAR e
ENCODING 101
SWIDTH 444 0
DWIDTH 15 0
BBX 12 15 1 0
BITMAP
0f80
39c0
60e0
6070
c070
fff0
c000
c000
c000
e000
e010
7030
7c60
3fc0
0f00
ENDCHAR
STARTCHAR f
ENCODING 102
SWIDTH 333 0
DWIDTH 11 0
BBX 12 23 0 0
BITMAP
03e0
0670
0c70
0c30
1c00
1c00
1c00
1c00
ffc0
1c00
1c00
1c00
1c00
1c00
1c00
1c00
1c00
1c00
1c00
1c00
1c00
3e00
ff80
ENDCHAR
STARTCHAR g
ENCODING 103
SWIDTH 500 0
DWIDTH 16 0
BBX 14 22 1 -7
BITMAP
0fc0
18fc
307c
7030
7030
7030
7030
3870
1ce0
0f80
1800
3000
7800
7fe0
3ff8
1ffc
600c
c00c
c01c
f038
7fe0
1f80
ENDCHAR
STARTCHAR h
ENCODING 104
SWIDTH 500 0
DWIDTH 16 0
BBX 16 23 0 0
BITMAP
1800
f800
3800
3800
3800
3800
3800
3800
39f0
3bf8
3e3c
3c1c
381c
381c
381c
381c
381c
381c
381c
381c
381c
381c
fe7f
ENDCHAR
STARTCHAR i
ENCODING 105
SWIDTH 278 0
DWIDTH 9 0
BBX 7 23 1 0
BITMAP
38
38
38
00
00
00
00
00
38
f8
38
38
38
38
38
38
38
38
38
38
38
38
fe
ENDCHAR
STARTCHAR j
ENCODING 106
SWIDTH 278 0
DWIDTH 9 0
BBX 8 30 -1 -7
BITMAP
07
07
07
00
00
00
00
00
03
1f
07
07
07
07
07
07
07
07
07
07
07
07
07
07
07
07
06
c6
ec
78
ENDCHAR
STARTCHAR k
ENCODING 107
SWIDTH 500 0
DWIDTH 16 0
BBX 16 23 0 0
BITMAP
1800
f800
3800
3800
3800
3800
3800
3800
38fe
3870
3860
38c0
3980
3f00
3e00
3f00
3b80
39c0
38e0
38f0
3878
383c
fe7f
ENDCHAR
STARTCHAR l
ENCODING 108
SWIDTH 278 0
DWIDTH 9 0
BBX 7 23 1 0
BITMAP
18
f8
38
38
38
38
38
38
38
38
38
38
38
38
38
38
38
38
38
38
38
38
fe
ENDCHAR
STARTCHAR m
ENCODING 109
SWIDTH 778 0
DWIDTH 26 0
BBX 25 15 0 0
BITMAP
18f07800
fbf9fc00
3e3f1e00
3c1e0e00
381c0e00
381c0e00
381c0e00
381c0e00
381c0e00
381c0e00
381c0e00
381c0e00
381c0e00
381c0e00
fe7f3f80
ENDCHAR
STARTCHAR n
ENCODING 110
SWIDTH 500 0
DWIDTH 16 0
BBX 16 15 0 0
BITMAP
18f0
fbf8
3c3c
381c
381c
381c
381c
381c
381c
381c
381c
381c
381c
381c
fe7f
ENDCHAR
STARTCHAR o
ENCODING 111
SWIDTH 500 0
DWIDTH 16 0
BBX 14 15 1 0
BITMAP
0780
18e0
3070
7038
6038
e01c
e01c
e01c
e01c
e01c
7018
7038
3830
1c60
0780
ENDCHAR
STARTCHAR p
ENCODING 112
SWIDTH 500 0
DWIDTH 17 0
BBX 15 22 0 -7
BITMAP
19e0
fbf8
3c7c
381c
381e
380e
380e
380e
380e
380e
380c
381c
3c18
3e70
3bc0
3800
3800
3800
3800
3800
3800
ff00
ENDCHAR
STARTCHAR q
ENCODING 113
SWIDTH 500 0
DWIDTH 17 0
BBX 15 22 1 -7
BITMAP
0fc8
1c78
3038
7038
6038
e038
e038
e038
e038
e038
f038
7078
78f8
3fb8
1f38
0038
0038
0038
0038
0038
0038
01fe
ENDCHAR
STARTCHAR r
ENCODING 114
SWIDTH 333 0
DWIDTH 11 0
BBX 10 15 1 0
BITMAP
1980
fbc0
3fc0
3c00
3800
3800
3800
3800
3800
3800
3800
3800
3800
3800
fe00
ENDCHAR
STARTCHAR s
ENCODING 115
SWIDTH 389 0
DWIDTH 13 0
BBX 10 15 1 0
BITMAP
3e80
6380
c180
c080
e080
f000
7c00
3f00
0f80
03c0
81c0
80c0
c0c0
e180
bf00
ENDCHAR
STARTCHAR t
ENCODING 116
SWIDTH 278 0
DWIDTH 9 0
BBX 9 19 0 0
BITMAP
0800
0800
1800
3800
ff00
3800
3800
3800
3800
3800
3800
3800
3800
3800
3800
3800
3880
3f00
1c00
ENDCHAR
STARTCHAR u
ENCODING 117
SWIDTH 500 0
DWIDTH 17 0
BBX 16 15 0 0
BITMAP
f87c
381c
381c
381c
381c
381c
381c
381c
381c
381c
381c
383c
3c5c
1fdf
0f8c
ENDCHAR
STARTCHAR v
ENCODING 118
SWIDTH 500 0
DWIDTH 17 0
BBX 15 15 1 0
BITMAP
fe3e
780c
3808
3c18
1c18
1c10
0e30
0e20
0760
0740
07c0
03c0
0380
0180
0100
ENDCHAR
STARTCHAR w
ENCODING 119
SWIDTH 722 0
DWIDTH 24 0
BBX 21 15 1 0
BITMAP
fdfc78
707030
707030
383020
383860
183840
1c7840
1c5cc0
0ccc80
0e8f80
0f8f00
070700
070700
030600
020200
ENDCHAR
STARTCHAR x
ENCODING 120
SWIDTH 500 0
DWIDTH 17 0
BBX 14 15 1 0
BITMAP
fcf8
3860
3cc0
1c80
1e80
0f00
0700
0780
0f80
0bc0
19e0
10e0
3070
6078
f0fc
ENDCHAR
STARTCHAR y
ENCODING 121
SWIDTH 500 0
DWIDTH 17 0
BBX 15 22 1 -7
BITMAP
fe1e
780c
380c
3c08
1c18
1e18
0e10
0e30
0720
0720
03e0
03c0
01c0
0180
0180
0100
0100
0300
0200
3e00
7c00
3800
ENDCHAR
STARTCHAR z
ENCODING 122
SWIDTH 444 0
DWIDTH 15 0
BBX 13 15 1 0
BITMAP
7ff0
60f0
40e0
41e0
03c0
0380
0780
0700
0e00
1e00
1c08
3808
7808
7018
fff0
ENDCHAR
STARTCHAR braceleft
ENCODING 123
SWIDTH 480 0
DWIDTH 16 0
BBX 8 28 4 -5
BITMAP
0f
1c
38
38
38
38
38
38
38
38
38
38
38
30
e0
30
38
38
38
38
38
38
38
38
38
18
1c
0f
ENDCHAR
STARTCHAR bar
ENCODING 124
SWIDTH 200 0
DWIDTH 7 0
BBX 2 23 2 0
BITMAP
c0
c0
c0
c0
c0
c0
c0
c0
c0
c0
c0
c0
c0
c0
c0
c0
c0
c0
c0
c0
c0
c0
c0
ENDCHAR
STARTCHAR braceright
ENCODING 125
SWIDTH 480 0
DWIDTH 16 0
BBX 8 28 4 -5
BITMAP
f0
38
1c
1c
1c
1c
1c
1c
1c
1c
1c
1c
1c
0c
07
0c
1c
1c
1c
1c
1c
1c
1c
1c
1c
18
38
f0
ENDCHAR
STARTCHAR asciitilde
ENCODING 126
SWIDTH 541 0
DWIDTH 18 0
BBX 16 4 1 7
BITMAP
3e03
7f87
e1fe
c07c
ENDCHAR
STARTCHAR nobreakspace
ENCODING 160
SWIDTH 250 0
DWIDTH 8 0
BBX 1 1 0 0
BITMAP
00
ENDCHAR
STARTCHAR Aogonek
ENCODING 161
SWIDTH 722 0
DWIDTH 24 0
BBX 22 28 1 -5
BITMAP
003000
003000
007000
007800
007800
00fc00
00dc00
009c00
018e00
010e00
030f00
030700
020700
060780
060380
0fffc0
0c03c0
1801c0
1801e0
3001e0
3000f0
7000f0
fc03fc
004000
00c000
008400
00f800
007000
ENDCHAR
STARTCHAR breve
ENCODING 162
SWIDTH 333 0
DWIDTH 11 0
BBX 9 5 1 17
BITMAP
8080
c180
6300
7f00
3e00
ENDCHAR
STARTCHAR Lstroke
ENCODING 163
SWIDTH 611 0
DWIDTH 20 0
BBX 19 23 1 0
BITMAP
ff8000
3e0000
1c0000
1c0000
1c0000
1c0000
1c0000
1cc000
1d8000
1f0000
1e0000
1c0000
3c0000
7c0000
dc0000
9c0000
1c0000
1c0020
1c0020
1c0060
1c00c0
3e03c0
ffffc0
ENDCHAR
STARTCHAR currency
ENCODING 164
SWIDTH 500 0
DWIDTH 17 0
BBX 16 17 0 3
BITMAP
c7e3
ffff
3e7c
781e
700e
e007
e007
c003
c003
c003
e007
e007
700e
781e
3e7c
ffff
c7e3
ENDCHAR
STARTCHAR Lcaron
ENCODING 165
SWIDTH 611 0
DWIDTH 20 0
BBX 19 25 1 0
BITMAP
001800
003c00
ffbc00
3e1c00
1c0400
1c0800
1c1000
1c0000
1c0000
1c0000
1c0000
1c0000
1c0000
1c0000
1c0000
1c0000
1c0000
1c0000
1c0000
1c0020
1c0020
1c0060
1c00c0
3e03c0
ffffc0
ENDCHAR
STARTCHAR Sacute
ENCODING 166
SWIDTH 556 0
DWIDTH 18 0
BBX 15 30 1 0
BITMAP
000c
001c
0038
0060
00c0
0180
0000
07e4
1c3c
381c
700c
7004
7006
7800
7c00
3e00
1f80
0fe0
07f0
01f8
007c
003e
001e
800e
800e
c00e
e00c
701c
7c78
67f0
ENDCHAR
STARTCHAR section
ENCODING 167
SWIDTH 500 0
DWIDTH 17 0
BBX 12 28 2 -5
BITMAP
1f80
31c0
61c0
61c0
7180
3800
3c00
1e00
0f00
3f80
63c0
c1e0
c0e0
c070
e030
7030
7830
3c60
1fc0
0f00
0780
03c0
01c0
18e0
3860
3860
38c0
1f80
ENDCHAR
STARTCHAR diaeresis
ENCODING 168
SWIDTH 333 0
DWIDTH 11 0
BBX 9 3 1 18
BITMAP
e380
e380
e380
ENDCHAR
STARTCHAR Scaron
ENCODING 169
SWIDTH 556 0
DWIDTH 18 0
BBX 15 30 1 0
BITMAP
1008
1818
0e70
07e0
03c0
0180
0000
07e4
1c3c
381c
700c
7004
7006
7800
7c00
3e00
1f80
0fe0
07f0
01f8
007c
003e
001e
800e
800e
c00e
e00c
701c
7c78
67f0
ENDCHAR
STARTCHAR Scedilla
ENCODING 170
SWIDTH 556 0
DWIDTH 18 0
BBX 15 30 1 -7
BITMAP
07e4
1c3c
381c
700c
7004
7006
7800
7c00
3e00
1f80
0fe0
07f0
01f8
007c
003e
001e
800e
800e
c00e
e00c
701c
7c78
67f0
0100
0300
03c0
00e0
0060
00e0
07c0
ENDCHAR
STARTCHAR Tcaron
ENCODING 171
SWIDTH 611 0
DWIDTH 20 0
BBX 19 30 1 0
BITMAP
040200
060600
039c00
01f800
00f000
006000
000000
ffffe0
f0e1e0
c0e060
c0e060
80e020
80e020
00e000
00e000
00e000
00e000
00e000
00e000
00e000
00e000
00e000
00e000
00e000
00e000
00e000
00e000
00e000
01f000
07fc00
ENDCHAR
STARTCHAR Zacute
ENCODING 172
SWIDTH 611 0
DWIDTH 20 0
BBX 19 30 1 0
BITMAP
000300
000700
000e00
001800
003000
006000
000000
3fffe0
3803c0
600780
600780
400f00
401e00
001e00
003c00
007800
007800
00f000
01e000
01e000
03c000
03c000
078000
0f0000
0f0020
1e0020
3c0060
3c0060
7801c0
ffffc0
ENDCHAR
STARTCHAR hyphen
ENCODING 173
SWIDTH 333 0
DWIDTH 11 0
BBX 8 2 1 7
BITMAP
ff
ff
ENDCHAR
STARTCHAR Zcaron
ENCODING 174
SWIDTH 611 0
DWIDTH 20 0
BBX 19 30 1 0
BITMAP
040200
060600
039c00
01f800
00f000
006000
000000
3fffe0
3803c0
600780
600780
400f00
401e00
001e00
003c00
007800
007800
00f000
01e000
01e000
03c000
03c000
078000
0f0000
0f0020
1e0020
3c0060
3c0060
7801c0
ffffc0
ENDCHAR
STARTCHAR Zabovedot
ENCODING 175
SWIDTH 611 0
DWIDTH 20 0
BBX 19 27 1 0
BITMAP
00e000
00e000
00e000
000000
3fffe0
3803c0
600780
600780
400f00
401e00
001e00
003c00
007800
007800
00f000
01e000
01e000
03c000
03c000
078000
0f0000
0f0020
1e0020
3c0060
3c0060
7801c0
ffffc0
ENDCHAR
STARTCHAR degree
ENCODING 176
SWIDTH 400 0
DWIDTH 13 0
BBX 10 10 1 13
BITMAP
1e00
3f00
6180
c0c0
c0c0
c0c0
c0c0
6180
3f00
1e00
ENDCHAR
STARTCHAR aogonek
ENCODING 177
SWIDTH 444 0
DWIDTH 15 0
BBX 13 20 1 -5
BITMAP
1f80
31c0
70e0
70e0
60e0
03e0
0ee0
18e0
30e0
60e0
e0e0
e1e0
f2e8
7ef8
3c70
0400
0c00
0840
0f80
0700
ENDCHAR
STARTCHAR ogonek
ENCODING 178
SWIDTH 333 0
DWIDTH 11 0
BBX 6 5 2 -5
BITMAP
40
c0
84
f8
70
ENDCHAR
STARTCHAR lstroke
ENCODING 179
SWIDTH 278 0
DWIDTH 9 0
BBX 7 23 1 0
BITMAP
18
f8
38
38
38
38
38
3a
3e
3c
38
78
f8
b8
38
38
38
38
38
38
38
38
fe
ENDCHAR
STARTCHAR acute
ENCODING 180
SWIDTH 333 0
DWIDTH 11 0
BBX 7 6 3 17
BITMAP
06
0e
1c
30
60
c0
ENDCHAR
STARTCHAR lcaron
ENCODING 181
SWIDTH 360 0
DWIDTH 12 0
BBX 10 25 1 0
BITMAP
0180
03c0
1bc0
f9c0
3840
3880
3900
3800
3800
3800
3800
3800
3800
3800
3800
3800
3800
3800
3800
3800
3800
3800
3800
3800
fe00
ENDCHAR
STARTCHAR sacute
ENCODING 182
SWIDTH 389 0
DWIDTH 13 0
BBX 11 22 1 0
BITMAP
0060
00e0
01c0
0300
0600
0c00
0000
3e80
6380
c180
c080
e080
f000
7c00
3f00
0f80
03c0
81c0
80c0
c0c0
e180
bf00
ENDCHAR
STARTCHAR caron
ENCODING 183
SWIDTH 333 0
DWIDTH 11 0
BBX 10 6 0 17
BITMAP
8040
c0c0
7380
3f00
1e00
0c00
ENDCHAR
STARTCHAR cedilla
ENCODING 184
SWIDTH 333 0
DWIDTH 11 0
BBX 6 7 2 -7
BITMAP
20
60
78
1c
0c
1c
f8
ENDCHAR
STARTCHAR scaron
ENCODING 185
SWIDTH 389 0
DWIDTH 13 0
BBX 10 22 1 0
BITMAP
8040
c0c0
7380
3f00
1e00
0c00
0000
3e80
6380
c180
c080
e080
f000
7c00
3f00
0f80
03c0
81c0
80c0
c0c0
e180
bf00
ENDCHAR
STARTCHAR scedilla
ENCODING 186
SWIDTH 389 0
DWIDTH 13 0
BBX 10 22 1 -7
BITMAP
3e80
6380
c180
c080
e080
f000
7c00
3f00
0f80
03c0
81c0
80c0
c0c0
e180
bf00
0800
1800
1e00
0700
0300
0700
3e00
ENDCHAR
STARTCHAR tcaron
ENCODING 187
SWIDTH 300 0
DWIDTH 10 0
BBX 10 23 0 0
BITMAP
0180
03c0
03c0
01c0
0840
0880
1900
3800
ff00
3800
3800
3800
3800
3800
3800
3800
3800
3800
3800
3800
3880
3f00
1c00
ENDCHAR
STARTCHAR zacute
ENCODING 188
SWIDTH 444 0
DWIDTH 15 0
BBX 13 22 1 0
BITMAP
0018
0038
0070
00c0
0180
0300
0000
7ff0
60f0
40e0
41e0
03c0
0380
0780
0700
0e00
1e00
1c08
3808
7808
7018
fff0
ENDCHAR
STARTCHAR doubleacute
ENCODING 189
SWIDTH 333 0
DWIDTH 11 0
BBX 12 6 0 17
BITMAP
0630
0e70
1ce0
3180
6300
c600
ENDCHAR
STARTCHAR zcaron
ENCODING 190
SWIDTH 444 0
DWIDTH 15 0
BBX 13 22 1 0
BITMAP
2010
3030
1ce0
0fc0
0780
0300
0000
7ff0
60f0
40e0
41e0
03c0
0380
0780
0700
0e00
1e00
1c08
3808
7808
7018
fff0
ENDCHAR
STARTCHAR zabovedot
ENCODING 191
SWIDTH 444 0
DWIDTH 15 0
BBX 13 19 1 0
BITMAP
0700
0700
0700
0000
7ff0
60f0
40e0
41e0
03c0
0380
0780
0700
0e00
1e00
1c08
3808
7808
7018
fff0
ENDCHAR
STARTCHAR Racute
ENCODING 192
SWIDTH 667 0
DWIDTH 22 0
BBX 21 30 1 0
BITMAP
000c00
001c00
003800
006000
00c000
018000
000000
fff800
3c3e00
1c0f00
1c0780
1c0780
1c0380
1c0380
1c0380
1c0780
1c0700
1c1e00
1ff800
1cf000
1c7800
1c3c00
1c3c00
1c1e00
1c0f00
1c0f80
1c0780
1c03c0
3e01e0
ff81f8
ENDCHAR
STARTCHAR Aacute
ENCODING 193
SWIDTH 722 0
DWIDTH 24 0
BBX 22 30 1 0
BITMAP
000180
000380
000700
000c00
001800
003000
000000
003000
003000
007000
007800
007800
00fc00
00dc00
009c00
018e00
010e00
030f00
030700
020700
060780
060380
0fffc0
0c03c0
1801c0
1801e0
3001e0
3000f0
7000f0
fc03fc
ENDCHAR
STARTCHAR Acircumflex
ENCODING 194
SWIDTH 722 0
DWIDTH 24 0
BBX 22 30 1 0
BITMAP
003000
007800
00fc00
01ce00
030300
020100
000000
003000
003000
007000
007800
007800
00fc00
00dc00
009c00
018e00
010e00
030f00
030700
020700
060780
060380
0fffc0
0c03c0
1801c0
1801e0
3001e0
3000f0
7000f0
fc03fc
ENDCHAR
STARTCHAR Abreve
ENCODING 195
SWIDTH 722 0
DWIDTH 24 0
BBX 22 29 1 0
BITMAP
020200
030600
018c00
01fc00
00f800
000000
003000
003000
007000
007800
007800
00fc00
00dc00
009c00
018e00
010e00
030f00
030700
020700
060780
060380
0fffc0
0c03c0
1801c0
1801e0
3001e0
3000f0
7000f0
fc03fc
ENDCHAR
STARTCHAR Adiaeresis
ENCODING 196
SWIDTH 722 0
DWIDTH 24 0
BBX 22 28 1 0
BITMAP
01c700
01c700
01c700
000000
000000
003000
003000
007000
007800
007800
00fc00
00dc00
009c00
018e00
010e00
030f00
030700
020700
060780
060380
0fffc0
0c03c0
1801c0
1801e0
3001e0
3000f0
7000f0
fc03fc
ENDCHAR
STARTCHAR Lacute
ENCODING 197
SWIDTH 611 0
DWIDTH 20 0
BBX 19 30 1 0
BITMAP
006000
00e000
01c000
030000
060000
0c0000
000000
ff8000
3e0000
1c0000
1c0000
1c0000
1c0000
1c0000
1c0000
1c0000
1c0000
1c0000
1c0000
1c0000
1c0000
1c0000
1c0000
1c0000
1c0020
1c0020
1c0060
1c00c0
3e03c0
ffffc0
ENDCHAR
STARTCHAR Cacute
ENCODING 198
SWIDTH 667 0
DWIDTH 22 0
BBX 20 30 1 0
BITMAP
0000c0
0001c0
000380
000600
000c00
001800
000000
01ff10
0783f0
0e00f0
1c0070
380030
380030
700010
700010
f00000
f00000
f00000
f00000
f00000
f00000
f00000
700000
700000
380000
380010
1c0030
0e0060
0783c0
01ff00
ENDCHAR
STARTCHAR Ccedilla
ENCODING 199
SWIDTH 667 0
DWIDTH 22 0
BBX 20 30 1 -7
BITMAP
01ff10
0783f0
0e00f0
1c0070
380030
380030
700010
700010
f00000
f00000
f00000
f00000
f00000
f00000
f00000
700000
700000
380000
380010
1c0030
0e0060
0783c0
01ff00
004000
00c000
00f000
003800
001800
003800
01f000
ENDCHAR
STARTCHAR Ccaron
ENCODING 200
SWIDTH 667 0
DWIDTH 22 0
BBX 20 30 1 0
BITMAP
010080
018180
00e700
007e00
003c00
001800
000000
01ff10
0783f0
0e00f0
1c0070
380030
380030
700010
700010
f00000
f00000
f00000
f00000
f00000
f00000
f00000
700000
700000
380000
380010
1c0030
0e0060
0783c0
01ff00
ENDCHAR
STARTCHAR Eacute
ENCODING 201
SWIDTH 611 0
DWIDTH 20 0
BBX 19 30 1 0
BITMAP
000600
000e00
001c00
003000
006000
00c000
000000
ffffc0
3e03c0
1c00c0
1c0040
1c0040
1c0000
1c0000
1c0000
1c0100
1c0100
1c0300
1fff00
1c0300
1c0100
1c0100
1c0000
1c0000
1c0020
1c0020
1c0060
1c00c0
3e03c0
ffffc0
ENDCHAR
STARTCHAR Eogonek
ENCODING 202
SWIDTH 611 0
DWIDTH 20 0
BBX 19 28 1 -5
BITMAP
ffffc0
3e03c0
1c00c0
1c0040
1c0040
1c0000
1c0000
1c0000
1c0100
1c0100
1c0300
1fff00
1c0300
1c0100
1c0100
1c0000
1c0000
1c0020
1c0020
1c0060
1c00c0
3e03c0
ffffc0
008000
018000
010800
01f000
00e000
ENDCHAR
STARTCHAR Ediaeresis
ENCODING 203
SWIDTH 611 0
DWIDTH 20 0
BBX 19 28 1 0
BITMAP
038e00
038e00
038e00
000000
000000
ffffc0
3e03c0
1c00c0
1c0040
1c0040
1c0000
1c0000
1c0000
1c0100
1c0100
1c0300
1fff00
1c0300
1c0100
1c0100
1c0000
1c0000
1c0020
1c0020
1c0060
1c00c0
3e03c0
ffffc0
ENDCHAR
STARTCHAR Ecaron
ENCODING 204
SWIDTH 611 0
DWIDTH 20 0
BBX 19 30 1 0
BITMAP
080400
0c0c00
073800
03f000
01e000
00c000
000000
ffffc0
3e03c0
1c00c0
1c0040
1c0040
1c0000
1c0000
1c0000
1c0100
1c0100
1c0300
1fff00
1c0300
1c0100
1c0100
1c0000
1c0000
1c0020
1c0020
1c0060
1c00c0
3e03c0
ffffc0
ENDCHAR
STARTCHAR Iacute
ENCODING 205
SWIDTH 333 0
DWIDTH 11 0
BBX 9 30 1 0
BITMAP
0180
0380
0700
0c00
1800
3000
0000
ff80
3e00
1c00
1c00
1c00
1c00
1c00
1c00
1c00
1c00
1c00
1c00
1c00
1c00
1c00
1c00
1c00
1c00
1c00
1c00
1c00
3e00
ff80
ENDCHAR
STARTCHAR Icircumflex
ENCODING 206
SWIDTH 333 0
DWIDTH 11 0
BBX 10 30 1 0
BITMAP
0c00
1e00
3f00
7380
c0c0
8040
0000
ff80
3e00
1c00
1c00
1c00
1c00
1c00
1c00
1c00
1c00
1c00
1c00
1c00
1c00
1c00
1c00
1c00
1c00
1c00
1c00
1c00
3e00
ff80
ENDCHAR
STARTCHAR Dcaron
ENCODING 207
SWIDTH 722 0
DWIDTH 24 0
BBX 22 30 1 0
BITMAP
080400
0c0c00
073800
03f000
01e000
00c000
000000
fffe00
3e0780
1c01c0
1c00e0
1c0070
1c0070
1c0038
1c0038
1c003c
1c003c
1c003c
1c003c
1c003c
1c003c
1c003c
1c0038
1c0038
1c0070
1c0070
1c00e0
1c01c0
3e0780
fffe00
ENDCHAR
STARTCHAR Dstroke
ENCODING 208
SWIDTH 722 0
DWIDTH 24 0
BBX 22 23 1 0
BITMAP
fffe00
3e0780
1c01c0
1c00e0
1c0070
1c0070
1c0038
1c0038
1c003c
1c003c
1c003c
ffc03c
ffc03c
1c003c
1c003c
1c0038
1c0038
1c0070
1c0070
1c00e0
1c01c0
3e0780
fffe00
ENDCHAR
STARTCHAR Nacute
ENCODING 209
SWIDTH 722 0
DWIDTH 24 0
BBX 22 30 1 0
BITMAP
000180
000380
000700
000c00
001800
003000
000000
f801fc
3c0070
1e0020
1f0020
1f0020
178020
13c020
13c020
11e020
10f020
10f820
107820
103c20
101e20
101f20
100f20
1007a0
1003e0
1001e0
1001e0
1000e0
380060
fe0020
ENDCHAR
STARTCHAR Ncaron
ENCODING 210
SWIDTH 722 0
DWIDTH 24 0
BBX 22 30 1 0
BITMAP
020100
030300
01ce00
00fc00
007800
003000
000000
f801fc
3c0070
1e0020
1f0020
1f0020
178020
13c020
13c020
11e020
10f020
10f820
107820
103c20
101e20
101f20
100f20
1007a0
1003e0
1001e0
1001e0
1000e0
380060
fe0020
ENDCHAR
STARTCHAR Oacute
ENCODING 211
SWIDTH 722 0
DWIDTH 24 0
BBX 22 30 1 0
BITMAP
000180
000380
000700
000c00
001800
003000
000000
01fe00
078780
0e01c0
1c00e0
380070
380070
700038
700038
f0003c
f0003c
f0003c
f0003c
f0003c
f0003c
f0003c
700038
700038
380070
380070
1c00e0
0e01c0
078780
01fe00
ENDCHAR
STARTCHAR Ocircumflex
ENCODING 212
SWIDTH 722 0
DWIDTH 24 0
BBX 22 30 1 0
BITMAP
003000
007800
00fc00
01ce00
030300
020100
000000
01fe00
078780
0e01c0
1c00e0
380070
380070
700038
700038
f0003c
f0003c
f0003c
f0003c
f0003c
f0003c
f0003c
700038
700038
380070
380070
1c00e0
0e01c0
078780
01fe00
ENDCHAR
STARTCHAR Odoubleacute
ENCODING 213
SWIDTH 722 0
DWIDTH 24 0
BBX 22 30 1 0
BITMAP
000c60
001ce0
0039c0
006300
00c600
018c00
000000
01fe00
078780
0e01c0
1c00e0
380070
380070
700038
700038
f0003c
f0003c
f0003c
f0003c
f0003c
f0003c
f0003c
700038
700038
380070
380070
1c00e0
0e01c0
078780
01fe00
ENDCHAR
STARTCHAR Odiaeresis
ENCODING 214
SWIDTH 722 0
DWIDTH 24 0
BBX 22 28 1 0
BITMAP
01c700
01c700
01c700
000000
000000
01fe00
078780
0e01c0
1c00e0
380070
380070
700038
700038
f0003c
f0003c
f0003c
f0003c
f0003c
f0003c
f0003c
700038
700038
380070
380070
1c00e0
0e01c0
078780
01fe00
ENDCHAR
STARTCHAR multiply
ENCODING 215
SWIDTH 564 0
DWIDTH 19 0
BBX 16 16 1 0
BITMAP
4002
e007
700e
381c
1c38
0e70
07e0
03c0
03c0
07e0
0e70
1c38
381c
700e
e007
4002
ENDCHAR
STARTCHAR Rcaron
ENCODING 216
SWIDTH 667 0
DWIDTH 22 0
BBX 21 30 1 0
BITMAP
100800
181800
0e7000
07e000
03c000
018000
000000
fff800
3c3e00
1c0f00
1c0780
1c0780
1c0380
1c0380
1c0380
1c0780
1c0700
1c1e00
1ff800
1cf000
1c7800
1c3c00
1c3c00
1c1e00
1c0f00
1c0f80
1c0780
1c03c0
3e01e0
ff81f8
ENDCHAR
STARTCHAR Uring
ENCODING 217
SWIDTH 722 0
DWIDTH 24 0
BBX 22 31 1 0
BITMAP
007000
00f800
018c00
010400
018c00
00f800
007000
000000
ff81fc
3e0070
1c0020
1c0020
1c0020
1c0020
1c0020
1c0020
1c0020
1c0020
1c0020
1c0020
1c0020
1c0020
1c0020
1c0020
1c0020
1c0020
1e0060
0e0040
0f00c0
07c380
01fe00
ENDCHAR
STARTCHAR Uacute
ENCODING 218
SWIDTH 722 0
DWIDTH 24 0
BBX 22 30 1 0
BITMAP
000180
000380
000700
000c00
001800
003000
000000
ff81fc
3e0070
1c0020
1c0020
1c0020
1c0020
1c0020
1c0020
1c0020
1c0020
1c0020
1c0020
1c0020
1c0020
1c0020
1c0020
1c0020
1c0060
1e0060
0e0040
0f00c0
07c380
01fe00
ENDCHAR
STARTCHAR Udoubleacute
ENCODING 219
SWIDTH 722 0
DWIDTH 24 0
BBX 22 30 1 0
BITMAP
000c60
001ce0
0039c0
006300
00c600
018c00
000000
ff81fc
3e0070
1c0020
1c0020
1c0020
1c0020
1c0020
1c0020
1c0020
1c0020
1c0020
1c0020
1c0020
1c0020
1c0020
1c0020
1c0020
1c0020
1e0060
0e0040
0f00c0
07c380
01fe00
ENDCHAR
STARTCHAR Udiaeresis
ENCODING 220
SWIDTH 722 0
DWIDTH 24 0
BBX 22 28 1 0
BITMAP
01c700
01c700
01c700
000000
000000
ff81fc
3e0070
1c0020
1c0020
1c0020
1c0020
1c0020
1c0020
1c0020
1c0020
1c0020
1c0020
1c0020
1c0020
1c0020
1c0020
1c0020
1c0060
1e0060
0e0040
0f00c0
07c380
01fe00
ENDCHAR
STARTCHAR Yacute
ENCODING 221
SWIDTH 722 0
DWIDTH 24 0
BBX 22 30 1 0
BITMAP
0000c0
0001c0
000380
000600
000c00
001800
000000
ffc0fc
3f0038
1e0030
0f0060
0f80c0
078080
03c180
03c300
01e300
00f600
00fc00
007c00
003800
003800
003800
003800
003800
003800
003800
003800
003800
007c00
01ff00
ENDCHAR
STARTCHAR Tcedilla
ENCODING 222
SWIDTH 611 0
DWIDTH 20 0
BBX 19 30 1 -7
BITMAP
ffffe0
f0e1e0
c0e060
c0e060
80e020
80e020
00e000
00e000
00e000
00e000
00e000
00e000
00e000
00e000
00e000
00e000
00e000
00e000
00e000
00e000
00e000
01f000
07fc00
004000
00c000
00f000
003800
001800
003800
01f000
ENDCHAR
STARTCHAR ssharp
ENCODING 223
SWIDTH 500 0
DWIDTH 17 0
BBX 15 23 1 0
BITMAP
07c0
0c70
1838
1838
3838
3838
3838
3838
3830
3860
39c0
3878
381c
381e
380e
380e
380e
380e
380e
3b0c
3b9c
3b98
f9f0
ENDCHAR
STARTCHAR racute
ENCODING 224
SWIDTH 333 0
DWIDTH 11 0
BBX 11 22 1 0
BITMAP
0060
00e0
01c0
0300
0600
0c00
0000
1980
fbc0
3fc0
3c00
3800
3800
3800
3800
3800
3800
3800
3800
3800
3800
fe00
ENDCHAR
STARTCHAR aacute
ENCODING 225
SWIDTH 444 0
DWIDTH 15 0
BBX 13 23 1 0
BITMAP
00c0
01c0
0380
0600
0c00
1800
0000
0000
1f80
31c0
70e0
70e0
60e0
03e0
0ee0
18e0
30e0
60e0
e0e0
e1e0
f2e8
7ef8
3c70
ENDCHAR
STARTCHAR acircumflex
ENCODING 226
SWIDTH 444 0
DWIDTH 15 0
BBX 13 23 1 0
BITMAP
0600
0f00
1f80
39c0
6060
4020
0000
0000
1f80
31c0
70e0
70e0
60e0
03e0
0ee0
18e0
30e0
60e0
e0e0
e1e0
f2e8
7ef8
3c70
ENDCHAR
STARTCHAR abreve
ENCODING 227
SWIDTH 444 0
DWIDTH 15 0
BBX 13 21 1 0
BITMAP
4040
60c0
3180
3f80
1f00
0000
1f80
31c0
70e0
70e0
60e0
03e0
0ee0
18e0
30e0
60e0
e0e0
e1e0
f2e8
7ef8
3c70
ENDCHAR
STARTCHAR adiaeresis
ENCODING 228
SWIDTH 444 0
DWIDTH 15 0
BBX 13 21 1 0
BITMAP
38e0
38e0
38e0
0000
0000
0000
1f80
31c0
70e0
70e0
60e0
03e0
0ee0
18e0
30e0
60e0
e0e0
e1e0
f2e8
7ef8
3c70
ENDCHAR
STARTCHAR lacute
ENCODING 229
SWIDTH 278 0
DWIDTH 9 0
BBX 9 30 1 0
BITMAP
0180
0380
0700
0c00
1800
3000
0000
1800
f800
3800
3800
3800
3800
3800
3800
3800
3800
3800
3800
3800
3800
3800
3800
3800
3800
3800
3800
3800
3800
fe00
ENDCHAR
STARTCHAR cacute
ENCODING 230
SWIDTH 444 0
DWIDTH 15 0
BBX 12 22 1 0
BITMAP
0030
0070
00e0
0180
0300
0600
0000
0f80
38c0
70e0
60e0
e060
c000
c000
c000
c000
e000
e010
7030
7c60
3fc0
1f00
ENDCHAR
STARTCHAR ccedilla
ENCODING 231
SWIDTH 444 0
DWIDTH 15 0
BBX 12 22 1 -7
BITMAP
0f80
38c0
70e0
60e0
e060
c000
c000
c000
c000
e000
e010
7030
7c60
3fc0
0f00
0400
0c00
0f00
0380
0180
0380
1f00
ENDCHAR
STARTCHAR ccaron
ENCODING 232
SWIDTH 444 0
DWIDTH 15 0
BBX 12 22 1 0
BITMAP
4020
6060
39c0
1f80
0f00
0600
0000
0f80
38c0
70e0
60e0
e060
c000
c000
c000
c000
e000
e010
7030
7c60
3fc0
1f00
ENDCHAR
STARTCHAR eacute
ENCODING 233
SWIDTH 444 0
DWIDTH 15 0
BBX 12 23 1 0
BITMAP
0180
0380
0700
0c00
1800
3000
0000
0000
0f80
39c0
60e0
6070
c070
fff0
c000
c000
c000
e000
e010
7030
7c60
3fc0
0f00
ENDCHAR
STARTCHAR eogonek
ENCODING 234
SWIDTH 444 0
DWIDTH 15 0
BBX 12 20 1 -5
BITMAP
0f80
39c0
60e0
6070
c070
fff0
c000
c000
c000
e000
e010
7030
7c60
3fc0
0f00
0800
1800
1080
1f00
0e00
ENDCHAR
STARTCHAR ediaeresis
ENCODING 235
SWIDTH 444 0
DWIDTH 15 0
BBX 12 21 1 0
BITMAP
38e0
38e0
38e0
0000
0000
0000
0f80
39c0
60e0
6070
c070
fff0
c000
c000
c000
e000
e010
7030
7c60
3fc0
0f00
ENDCHAR
STARTCHAR ecaron
ENCODING 236
SWIDTH 444 0
DWIDTH 15 0
BBX 12 22 1 0
BITMAP
4020
6060
39c0
1f80
0f00
0600
0000
0f80
39c0
60e0
6070
c070
fff0
c000
c000
c000
e000
e010
7030
7c60
3fc0
0f00
ENDCHAR
STARTCHAR iacute
ENCODING 237
SWIDTH 278 0
DWIDTH 9 0
BBX 7 23 1 0
BITMAP
06
0e
1c
30
60
c0
00
00
18
f8
38
38
38
38
38
38
38
38
38
38
38
38
fe
ENDCHAR
STARTCHAR icircumflex
ENCODING 238
SWIDTH 278 0
DWIDTH 9 0
BBX 10 23 0 0
BITMAP
0c00
1e00
3f00
7380
c0c0
8040
0000
0000
0c00
7c00
1c00
1c00
1c00
1c00
1c00
1c00
1c00
1c00
1c00
1c00
1c00
1c00
7f00
ENDCHAR
STARTCHAR dcaron
ENCODING 239
SWIDTH 570 0
DWIDTH 19 0
BBX 18 25 1 0
BITMAP
000180
0003c0
001bc0
00f9c0
003840
003880
003900
003800
003800
003800
0fb800
18f800
307800
703800
603800
e03800
e03800
e03800
e03800
e03800
f03800
707800
78f800
3fbe00
0f3000
ENDCHAR
STARTCHAR dstroke
ENCODING 240
SWIDTH 510 0
DWIDTH 17 0
BBX 16 23 1 0
BITMAP
0018
00f8
0038
0038
01ff
01ff
0038
0038
0fb8
18f8
3078
7038
6038
e038
e038
e038
e038
e038
f038
7078
78f8
3fbe
0f30
ENDCHAR
STARTCHAR nacute
ENCODING 241
SWIDTH 500 0
DWIDTH 16 0
BBX 16 22 0 0
BITMAP
0018
0038
0070
00c0
0180
0300
0000
18f0
fbf8
3c3c
381c
381c
381c
381c
381c
381c
381c
381c
381c
381c
381c
fe7f
ENDCHAR
STARTCHAR ncaron
ENCODING 242
SWIDTH 500 0
DWIDTH 16 0
BBX 16 22 0 0
BITMAP
2010
3030
1ce0
0fc0
0780
0300
0000
18f0
fbf8
3c3c
381c
381c
381c
381c
381c
381c
381c
381c
381c
381c
381c
fe7f
ENDCHAR
STARTCHAR oacute
ENCODING 243
SWIDTH 500 0
DWIDTH 16 0
BBX 14 23 1 0
BITMAP
00c0
01c0
0380
0600
0c00
1800
0000
0000
0780
18e0
3070
7038
6038
e01c
e01c
e01c
e01c
e01c
7018
7038
3830
1c60
0780
ENDCHAR
STARTCHAR ocircumflex
ENCODING 244
SWIDTH 500 0
DWIDTH 16 0
BBX 14 23 1 0
BITMAP
0300
0780
0fc0
1ce0
3030
2010
0000
0000
0780
18e0
3070
7038
6038
e01c
e01c
e01c
e01c
e01c
7018
7038
3830
1c60
0780
ENDCHAR
STARTCHAR odoubleacute
ENCODING 245
SWIDTH 500 0
DWIDTH 16 0
BBX 15 22 1 0
BITMAP
00c6
01ce
039c
0630
0c60
18c0
0000
0780
18e0
3070
7038
6038
e01c
e01c
e01c
e01c
e01c
7018
7038
3830
1c60
0780
ENDCHAR
STARTCHAR odiaeresis
ENCODING 246
SWIDTH 500 0
DWIDTH 16 0
BBX 14 21 1 0
BITMAP
38e0
38e0
38e0
0000
0000
0000
0780
18e0
3070
7038
6038
e01c
e01c
e01c
e01c
e01c
7018
7038
3830
1c60
0780
ENDCHAR
STARTCHAR division
ENCODING 247
SWIDTH 564 0
DWIDTH 19 0
BBX 16 17 1 0
BITMAP
0180
03c0
03c0
0180
0000
0000
0000
ffff
ffff
0000
0000
0000
0000
0180
03c0
03c0
0180
ENDCHAR
STARTCHAR rcaron
ENCODING 248
SWIDTH 333 0
DWIDTH 11 0
BBX 10 22 1 0
BITMAP
8040
c0c0
7380
3f00
1e00
0c00
0000
1980
fbc0
3fc0
3c00
3800
3800
3800
3800
3800
3800
3800
3800
3800
3800
fe00
ENDCHAR
STARTCHAR uring
ENCODING 249
SWIDTH 500 0
DWIDTH 17 0
BBX 16 23 0 0
BITMAP
0700
0f80
18c0
1040
18c0
0f80
0700
0000
f87c
381c
381c
381c
381c
381c
381c
381c
381c
381c
381c
383c
3c5c
1fdf
0f8c
ENDCHAR
STARTCHAR uacute
ENCODING 250
SWIDTH 500 0
DWIDTH 17 0
BBX 16 23 0 0
BITMAP
0060
00e0
01c0
0300
0600
0c00
0000
0000
f87c
381c
381c
381c
381c
381c
381c
381c
381c
381c
381c
383c
3c7c
1fdf
0f98
ENDCHAR
STARTCHAR udoubleacute
ENCODING 251
SWIDTH 500 0
DWIDTH 17 0
BBX 16 22 0 0
BITMAP
00c6
01ce
039c
0630
0c60
18c0
0000
f87c
381c
381c
381c
381c
381c
381c
381c
381c
381c
381c
383c
3c5c
1fdf
0f8c
ENDCHAR
STARTCHAR udiaeresis
ENCODING 252
SWIDTH 500 0
DWIDTH 17 0
BBX 16 21 0 0
BITMAP
1c70
1c70
1c70
0000
0000
0000
f87c
381c
381c
381c
381c
381c
381c
381c
381c
381c
381c
383c
3c7c
1fdf
0f98
ENDCHAR
STARTCHAR yacute
ENCODING 253
SWIDTH 500 0
DWIDTH 17 0
BBX 15 30 0 -7
BITMAP
0018
0038
0070
00c0
0180
0300
0000
0000
fe1e
780c
380c
3c08
1c18
1e18
0e10
0e30
0720
0720
03e0
03c0
01c0
0180
0180
0180
0100
0300
0200
3e00
7c00
3800
ENDCHAR
STARTCHAR tcedilla
ENCODING 254
SWIDTH 278 0
DWIDTH 9 0
BBX 9 26 0 -7
BITMAP
0800
0800
1800
3800
ff00
3800
3800
3800
3800
3800
3800
3800
3800
3800
3800
3800
3880
3f00
1c00
0800
1800
1e00
0700
0300
0700
3e00
ENDCHAR
STARTCHAR abovedot
ENCODING 255
SWIDTH 333 0
DWIDTH 11 0
BBX 3 3 4 18
BITMAP
e0
e0
e0
ENDCHAR
ENDFONT
